<svg width="202" height="18" viewBox="0 0 202 18" fill="none" xmlns="http://www.w3.org/2000/svg">
<path d="M3.02309 2.80108V8.01353H9.09168V10.6319H3.02309V17.8051H0V0.194857H10.2113V2.80108H3.02309Z" fill="#476C76"/>
<path d="M17.5766 8.57375C18.1439 8.57375 18.6366 8.49662 19.0546 8.34236C19.4801 8.18809 19.8272 7.977 20.0959 7.70907C20.3721 7.43302 20.5773 7.10825 20.7117 6.73478C20.8461 6.3613 20.9132 5.95129 20.9132 5.50474C20.9132 4.61164 20.6408 3.92558 20.0959 3.44655C19.5584 2.96752 18.7336 2.72801 17.6214 2.72801H15.6956V8.57375H17.5766ZM25.3247 17.8051H22.6039C22.0889 17.8051 21.7157 17.5859 21.4843 17.1475L18.0805 11.5088C17.9536 11.2977 17.8118 11.1475 17.655 11.0582C17.5057 10.9689 17.2818 10.9242 16.9832 10.9242H15.6956V17.8051H12.6837V0.194857H17.6214C18.7187 0.194857 19.6592 0.320702 20.443 0.572394C21.2342 0.815966 21.8799 1.16103 22.38 1.60758C22.8876 2.05413 23.2608 2.58999 23.4997 3.21516C23.7385 3.83221 23.858 4.51421 23.858 5.26116C23.858 5.85386 23.7758 6.41407 23.6116 6.94181C23.4549 7.46955 23.2235 7.94858 22.9174 8.37889C22.6189 8.8092 22.2456 9.18674 21.7978 9.5115C21.3574 9.83626 20.8535 10.092 20.2862 10.2788C20.4803 10.4005 20.6594 10.5467 20.8237 10.7172C20.9879 10.8796 21.1372 11.0744 21.2715 11.3018L25.3247 17.8051Z" fill="#476C76"/>
<path d="M30.0962 2.80108V7.68471H34.5012C35.1974 7.68471 35.7617 8.24905 35.7617 8.9452C35.7617 9.64135 35.1974 10.2057 34.5012 10.2057H30.0962V15.1867H37.2845V17.8051H27.0731V0.194857H37.2845V2.80108H30.0962Z" fill="#476C76"/>
<path d="M40.2063 2.80108V7.68471H44.6113C45.3075 7.68471 45.8718 8.24905 45.8718 8.9452C45.8718 9.64135 45.3075 10.2057 44.6113 10.2057H40.2063V15.1867H47.3946V17.8051H37.1832V0.194857H47.3946V2.80108H40.2063Z" fill="#476C76"/>
<path d="M60.6103 15.1015V17.8051H51.1268V0.194857H54.1387V15.1015H60.6103Z" fill="#476C76"/>
<path d="M71.315 11.1556L69.3444 5.2977C69.2474 5.03789 69.1466 4.72936 69.0421 4.37212C68.9376 4.01488 68.8331 3.62923 68.7286 3.21516C68.6316 3.62923 68.5308 4.01894 68.4263 4.3843C68.3218 4.74154 68.221 5.05413 68.124 5.32206L66.1646 11.1556H71.315ZM76.6334 17.8051H74.3045C74.0433 17.8051 73.8305 17.7361 73.6663 17.5981C73.5021 17.452 73.3789 17.2733 73.2968 17.0622L72.0876 13.4696H65.3808L64.1716 17.0622C64.1119 17.249 63.9962 17.4195 63.8245 17.5737C63.6528 17.728 63.4401 17.8051 63.1863 17.8051H60.835L67.2059 0.194857H70.2737L76.6334 17.8051Z" fill="#476C76"/>
<path d="M91.958 0.194857V17.8051H90.4128C90.174 17.8051 89.9725 17.7645 89.8082 17.6834C89.6515 17.594 89.4985 17.4479 89.3492 17.2449L80.8957 5.50474C80.9405 6.0406 80.9629 6.53586 80.9629 6.99053V17.8051H78.3093V0.194857H79.888C80.0149 0.194857 80.1231 0.202976 80.2127 0.219214C80.3097 0.227333 80.3918 0.251691 80.459 0.292286C80.5337 0.324763 80.6046 0.377537 80.6718 0.450608C80.7389 0.515561 80.8136 0.604871 80.8957 0.718537L89.3828 12.5074C89.3604 12.2233 89.3417 11.9432 89.3268 11.6671C89.3119 11.3911 89.3044 11.1353 89.3044 10.8999V0.194857H91.958Z" fill="#476C76"/>
<path d="M106.682 13.6522C106.846 13.6522 106.992 13.7212 107.118 13.8593L108.305 15.2598C107.648 16.1448 106.838 16.8227 105.876 17.2936C104.92 17.7645 103.771 18 102.427 18C101.225 18 100.143 17.7767 99.18 17.3302C98.2246 16.8836 97.4072 16.2625 96.7279 15.4668C96.0487 14.6712 95.5262 13.7212 95.1604 12.617C94.8021 11.5129 94.623 10.3072 94.623 9C94.623 7.67659 94.817 6.46685 95.2052 5.37077C95.5933 4.26658 96.1382 3.31664 96.8399 2.52097C97.549 1.7253 98.3925 1.10825 99.3703 0.669824C100.348 0.223275 101.431 0 102.617 0C103.797 0 104.842 0.211096 105.752 0.633287C106.671 1.05548 107.451 1.60758 108.093 2.28958L107.085 3.81191C107.025 3.90934 106.947 3.99459 106.85 4.06766C106.76 4.14073 106.633 4.17727 106.469 4.17727C106.357 4.17727 106.241 4.14479 106.122 4.07984C106.002 4.00677 105.872 3.92152 105.73 3.82409C105.588 3.71854 105.424 3.60487 105.237 3.48309C105.051 3.3613 104.834 3.25169 104.588 3.15426C104.342 3.04871 104.054 2.96346 103.726 2.89851C103.405 2.82544 103.032 2.7889 102.606 2.7889C101.882 2.7889 101.218 2.93099 100.613 3.21516C100.016 3.4912 99.501 3.89716 99.068 4.43302C98.6351 4.96076 98.2992 5.61028 98.0603 6.3816C97.8215 7.14479 97.702 8.01759 97.702 9C97.702 9.99053 97.8289 10.8714 98.0827 11.6428C98.344 12.4141 98.6948 13.0636 99.1352 13.5913C99.5756 14.1191 100.094 14.525 100.692 14.8092C101.289 15.0852 101.931 15.2233 102.617 15.2233C103.028 15.2233 103.397 15.1989 103.726 15.1502C104.062 15.1015 104.368 15.0244 104.644 14.9188C104.928 14.8133 105.193 14.6793 105.439 14.5169C105.693 14.3464 105.943 14.1394 106.189 13.8958C106.264 13.8227 106.342 13.7659 106.424 13.7253C106.506 13.6766 106.592 13.6522 106.682 13.6522Z" fill="#476C76"/>
<path d="M113.392 2.80108V7.68471H119.057V10.2057H113.392V15.1867H120.58V17.8051H110.368V0.194857H120.58V2.80108H113.392Z" fill="#476C76"/>
<path d="M136.505 11.1556L134.534 5.2977C134.437 5.03789 134.336 4.72936 134.232 4.37212C134.127 4.01488 134.023 3.62923 133.918 3.21516C133.821 3.62923 133.721 4.01894 133.616 4.3843C133.512 4.74154 133.411 5.05413 133.314 5.32206L131.354 11.1556H136.505ZM141.823 17.8051H139.494C139.233 17.8051 139.02 17.7361 138.856 17.5981C138.692 17.452 138.569 17.2733 138.487 17.0622L137.277 13.4696H130.571L129.361 17.0622C129.302 17.249 129.186 17.4195 129.014 17.5737C128.843 17.728 128.63 17.8051 128.376 17.8051H126.025L132.396 0.194857H135.464L141.823 17.8051Z" fill="#476C76"/>
<path d="M157.876 9C157.876 10.2909 157.678 11.4763 157.282 12.5562C156.887 13.636 156.33 14.5656 155.614 15.3451C154.897 16.1245 154.035 16.7294 153.027 17.1597C152.02 17.59 150.9 17.8051 149.668 17.8051H143.499V0.194857H149.668C150.9 0.194857 152.02 0.414072 153.027 0.852503C154.035 1.28281 154.897 1.88769 155.614 2.66712C156.33 3.43843 156.887 4.36401 157.282 5.44384C157.678 6.52368 157.876 7.70907 157.876 9ZM154.785 9C154.785 8.03383 154.666 7.16915 154.427 6.40595C154.196 5.63464 153.856 4.98512 153.408 4.45737C152.968 3.92151 152.43 3.5115 151.796 3.22733C151.169 2.94317 150.46 2.80108 149.668 2.80108H146.522V15.1989H149.668C150.46 15.1989 151.169 15.0568 151.796 14.7727C152.43 14.4885 152.968 14.0825 153.408 13.5548C153.856 13.0189 154.196 12.3694 154.427 11.6062C154.666 10.8349 154.785 9.96617 154.785 9Z" fill="#476C76"/>
<path d="M178.091 0.194857V17.8051H175.437V6.43031C175.437 5.97564 175.46 5.48444 175.505 4.9567L170.612 14.9553C170.38 15.4344 170.026 15.6739 169.548 15.6739H169.122C168.645 15.6739 168.29 15.4344 168.059 14.9553L163.11 4.92016C163.132 5.18809 163.151 5.45196 163.166 5.71177C163.181 5.97158 163.188 6.2111 163.188 6.43031V17.8051H160.535V0.194857H162.808C162.942 0.194857 163.058 0.198917 163.155 0.207036C163.252 0.215155 163.338 0.235452 163.412 0.267929C163.494 0.300405 163.565 0.353179 163.625 0.426251C163.692 0.499323 163.756 0.596751 163.815 0.718537L168.663 10.498C168.79 10.7578 168.906 11.0257 169.01 11.3018C169.122 11.5778 169.231 11.862 169.335 12.1543C169.44 11.8539 169.548 11.5656 169.66 11.2896C169.772 11.0054 169.891 10.7334 170.018 10.4736L174.799 0.718537C174.859 0.596751 174.922 0.499323 174.99 0.426251C175.057 0.353179 175.128 0.300405 175.202 0.267929C175.284 0.235452 175.374 0.215155 175.471 0.207036C175.568 0.198917 175.684 0.194857 175.818 0.194857H178.091Z" fill="#476C76"/>
<path d="M184.726 17.8051H181.703V0.194857H184.726V17.8051Z" fill="#476C76"/>
<path d="M202 0.194857V17.8051H200.455C200.216 17.8051 200.014 17.7645 199.85 17.6834C199.694 17.594 199.54 17.4479 199.391 17.2449L190.938 5.50474C190.982 6.0406 191.005 6.53586 191.005 6.99053V17.8051H188.351V0.194857H189.93C190.057 0.194857 190.165 0.202976 190.255 0.219214C190.352 0.227333 190.434 0.251691 190.501 0.292286C190.576 0.324763 190.647 0.377537 190.714 0.450608C190.781 0.515561 190.856 0.604871 190.938 0.718537L199.425 12.5074C199.402 12.2233 199.384 11.9432 199.369 11.6671C199.354 11.3911 199.346 11.1353 199.346 10.8999V0.194857H202Z" fill="#476C76"/>
</svg>
